<?xml version="1.0" standalone="no"?><!DOCTYPE svg PUBLIC "-//W3C//DTD SVG 1.1//EN" "http://www.w3.org/Graphics/SVG/1.1/DTD/svg11.dtd"><svg t="1778724800906" class="icon" viewBox="0 0 1024 1024" version="1.1" xmlns="http://www.w3.org/2000/svg" p-id="6160" xmlns:xlink="http://www.w3.org/1999/xlink" width="128" height="128"><path d="M64 388.256c0-113.504 0-170.24 22.08-213.6A202.656 202.656 0 0 1 174.656 86.08C218.016 64 274.752 64 388.256 64h247.488c113.504 0 170.24 0 213.6 22.08a202.656 202.656 0 0 1 88.576 88.576c22.08 43.36 22.08 100.096 22.08 213.6v247.488c0 113.504 0 170.24-22.08 213.6a202.656 202.656 0 0 1-88.576 88.576c-43.36 22.08-100.096 22.08-213.6 22.08h-247.488c-113.504 0-170.24 0-213.6-22.08a202.656 202.656 0 0 1-88.576-88.576C64 805.984 64 749.248 64 635.744v-247.488z" fill="#001E36" p-id="6161"></path><path d="M534.56 723.84H297.728c-4 0-6.016-2.24-6.016-6.784V325.6c-0.448-3.2 2.304-6.016 5.44-5.568h73.28c2.432-0.32 4.576 1.92 4.224 4.32v321.824H547.2c3.616 0 5.024 1.824 4.224 5.536l-10.848 66.56c-0.064 3.36-2.816 5.536-5.984 5.568zM594.72 417.024h65.504a8.288 8.288 0 0 1 7.808 6.176c4.8 10.912 5.408 24.096 5.44 35.904 11.2-13.44 24.768-24.576 39.936-32.96a102.4 102.4 0 0 1 53.472-13.888c3.104-0.448 5.856 2.368 5.44 5.568v74.56c0 2.88-2.048 4.32-6.048 4.32-27.712-1.92-70.88 4.8-91.04 27.136v193.952c0 3.712-1.6 5.568-4.8 5.568h-70.304c-3.456 0.48-6.496-2.688-6.016-6.176V506.56c0-28.224 0.608-57.28-3.616-85.248-0.64-2.56 1.76-4.96 4.224-4.32z" fill="#31A8FF" p-id="6162"></path></svg>