<?xml version="1.0" standalone="no"?><!DOCTYPE svg PUBLIC "-//W3C//DTD SVG 1.1//EN" "http://www.w3.org/Graphics/SVG/1.1/DTD/svg11.dtd"><svg t="1778725076997" class="icon" viewBox="0 0 1024 1024" version="1.1" xmlns="http://www.w3.org/2000/svg" p-id="14742" xmlns:xlink="http://www.w3.org/1999/xlink" width="128" height="128"><path d="M901.312 672.928v52.864a11.968 11.968 0 0 1-8.32 11.424l-83.2 26.912a11.744 11.744 0 0 1-10.72-1.728 11.968 11.968 0 0 1-4.96-9.6v-57.6l-78.016 14.848v58.592a12 12 0 0 1-10.4 11.872l-112.8 15.456h-1.632a11.968 11.968 0 0 1-12.064-11.968v-62.176l-58.208 0.256h-8.544l-58.208-0.256V784a12 12 0 0 1-12 12.032h-1.664l-112.8-15.456a12 12 0 0 1-10.368-11.872v-58.816L239.36 695.04v57.6a11.968 11.968 0 0 1-4.928 9.6 11.84 11.84 0 0 1-10.752 1.728l-83.2-26.912a11.968 11.968 0 0 1-8.288-11.424v-52.704l-51.456-17.312a145.856 145.856 0 0 0-3.968 33.28c0 138.144 194.624 244.8 435.2 245.568h0.608c240.544-0.768 435.2-107.392 435.2-245.568a145.28 145.28 0 0 0-3.2-30.4z" fill="#478CBF" p-id="14743"></path><path d="M118.752 427.936V643.2l29.024 9.792a11.968 11.968 0 0 1 8.192 11.36v52.8l59.36 19.2v-55.808a12.032 12.032 0 0 1 14.24-11.808l102.048 19.488a11.968 11.968 0 0 1 9.76 11.776v58.176l88.8 12.128v-60.48a11.968 11.968 0 0 1 12.032-12l74.464 0.288 74.432-0.288a11.968 11.968 0 0 1 12.064 12v60.48l88.8-12.128v-58.208a11.936 11.936 0 0 1 9.6-11.776l102.048-19.488a12.064 12.064 0 0 1 14.272 11.808v55.712l59.36-19.2V664.32a11.968 11.968 0 0 1 8.16-11.36l19.776-6.656v-218.368h0.544A857.344 857.344 0 0 0 960 349.792a608.64 608.64 0 0 0-80.288-105.216A784.224 784.224 0 0 0 800 290.912a416.32 416.32 0 0 0-40.928-33.664 491.68 491.68 0 0 0-44-28.608 907.296 907.296 0 0 0 7.424-98.272A510.976 510.976 0 0 0 603.104 89.6a846.08 846.08 0 0 0-44.32 86.4 302.72 302.72 0 0 0-46.496-3.712h-0.576a302.624 302.624 0 0 0-46.528 3.712 840.8 840.8 0 0 0-44.32-86.4 510.752 510.752 0 0 0-119.36 40.8 900.544 900.544 0 0 0 7.424 98.272 489.984 489.984 0 0 0-44.032 28.608A417.92 417.92 0 0 0 224 290.912a785.696 785.696 0 0 0-79.68-46.336A608.64 608.64 0 0 0 64 349.792a857.344 857.344 0 0 0 54.208 78.176z" fill="#478CBF" p-id="14744"></path><path d="M398.784 531.2a87.648 87.648 0 1 1-87.68-87.616 87.648 87.648 0 0 1 87.68 87.616" fill="#FFFFFF" p-id="14745"></path><path d="M377.6 536.448a58.208 58.208 0 1 1-58.208-58.208 58.144 58.144 0 0 1 58.208 58.208" fill="#414042" p-id="14746"></path><path d="M517.312 626.88a27.008 27.008 0 0 1-28.224-25.6v-80.736a28.352 28.352 0 0 1 56.448 0v80.704a27.04 27.04 0 0 1-28.256 25.6M635.872 531.2a87.648 87.648 0 1 0 87.68-87.616 87.648 87.648 0 0 0-87.68 87.616" fill="#FFFFFF" p-id="14747"></path><path d="M656.992 536.448a58.176 58.176 0 1 0 58.144-58.208 58.144 58.144 0 0 0-58.144 58.208" fill="#414042" p-id="14748"></path></svg>