<?xml version="1.0" standalone="no"?><!DOCTYPE svg PUBLIC "-//W3C//DTD SVG 1.1//EN" "http://www.w3.org/Graphics/SVG/1.1/DTD/svg11.dtd"><svg t="1778724888962" class="icon" viewBox="0 0 1024 1024" version="1.1" xmlns="http://www.w3.org/2000/svg" p-id="10381" xmlns:xlink="http://www.w3.org/1999/xlink" width="128" height="128"><path d="M208.979592 1024h606.040816c115.461224 0 208.979592-93.518367 208.979592-208.979592V208.979592C1024 93.518367 930.481633 0 815.020408 0H208.979592C93.518367 0 0 93.518367 0 208.979592v606.040816c0 115.461224 93.518367 208.979592 208.979592 208.979592z" fill="#330000" p-id="10382"></path><path d="M512.20898 650.553469H348.995918l-33.436734 103.862858a7.627755 7.627755 0 0 1-8.254694 6.164897h-82.546939c-4.806531 0-6.164898-2.716735-4.806531-7.941224l141.270204-409.70449c1.358367-4.388571 2.612245-9.195102 4.388572-14.524081 1.776327-9.299592 2.612245-19.017143 2.612245-28.734694-0.417959-2.194286 1.358367-4.388571 3.552653-4.911021h113.684898c3.552653 0 5.22449 1.358367 5.746939 3.552653l160.182857 455.157551c1.253878 4.91102 0 7.105306-4.388572 7.105306h-91.74204c-3.134694 0.417959-6.164898-1.776327-7.000817-4.91102z m-26.331429-89.756734c-2.612245-9.195102-6.164898-20.27102-10.03102-31.764898-3.970612-11.911837-7.941224-24.764082-11.911837-38.034286-4.388571-13.688163-8.359184-26.958367-12.747755-40.646531-4.388571-13.688163-8.359184-26.540408-11.807347-39.288163-3.552653-12.434286-6.582857-23.928163-9.717551-34.481633h-0.835919c-3.970612 19.017143-8.777143 37.929796-14.94204 56.946939-6.582857 21.211429-13.165714 43.363265-20.166531 65.410613-6.164898 22.569796-12.747755 43.363265-19.330612 61.857959z m263.314286-188.708572c-14.419592 0.522449-28.525714-5.22449-38.974694-15.46449-10.13551-10.971429-15.36-25.6-14.942041-40.64653-0.417959-14.942041 5.22449-29.152653 15.777959-39.288163 10.553469-10.13551 24.555102-15.46449 39.079184-15.46449 17.136327 0 30.302041 5.32898 39.915102 15.46449A55.954286 55.954286 0 0 1 804.571429 315.977143c0.417959 15.046531-4.806531 29.675102-15.36 40.64653-10.13551 10.657959-25.077551 16.404898-40.019592 15.46449zM700.081633 755.670204V415.451429c0-4.388571 1.776327-6.164898 5.746938-6.164898h86.831021c3.970612 0 5.746939 2.194286 5.746939 6.164898v340.218775c0 4.91102-1.776327 7.105306-5.746939 7.105306h-85.995102c-4.388571 0-6.582857-2.612245-6.582857-7.105306z" fill="#FF9A00" p-id="10383"></path></svg>