<?xml version="1.0" standalone="no"?><!DOCTYPE svg PUBLIC "-//W3C//DTD SVG 1.1//EN" "http://www.w3.org/Graphics/SVG/1.1/DTD/svg11.dtd"><svg t="1778725117160" class="icon" viewBox="0 0 1024 1024" version="1.1" xmlns="http://www.w3.org/2000/svg" p-id="17759" xmlns:xlink="http://www.w3.org/1999/xlink" width="128" height="128"><path d="M654.208 0H180.181333C127.744 0 85.333333 41.685333 85.333333 93.098667v837.802666C85.333333 982.314667 127.786667 1024 180.138667 1024h663.722666C896.213333 1024 938.666667 982.314667 938.666667 930.901333V279.253333c0-12.330667-4.992-24.149333-13.866667-32.853333L687.744 13.653333a47.872 47.872 0 0 0-33.536-13.653333z" fill="#ED4543" p-id="17760"></path><path d="M617.088 467.797333a8.96 8.96 0 0 0 1.834667 4.309334 247.68 247.68 0 0 1-139.264-111.104 1.322667 1.322667 0 0 0-1.493334-0.725334c1.322667-11.221333 3.328-22.186667 5.888-32.853333 2.858667-11.648 6.656-23.04 11.306667-34.304a0.938667 0.938667 0 0 1 1.024-0.512 247.168 247.168 0 0 1 137.386667 63.402667 2.048 2.048 0 0 1 0.512 2.133333l-9.728 30.336a267.818667 267.818667 0 0 0-7.466667 79.36z" fill="#FFECEC" p-id="17761"></path><path d="M478.165333 360.277333a1.322667 1.322667 0 0 1 1.493334 0.725334 247.68 247.68 0 0 0 139.264 111.104c25.472 7.765333 29.098667 9.728 86.912 10.752 14.506667-0.512 24.32-1.28 29.482666-2.389334a1.706667 1.706667 0 0 1 1.109334 0.341334 13.482667 13.482667 0 0 1 3.157333 4.352c16.085333 31.402667 26.368 64.682667 27.989333 99.328 0.768 15.701333 0.469333 31.402667-1.024 47.104a1.493333 1.493333 0 0 1-1.194666 1.28 278.442667 278.442667 0 0 1-68.224 1.194666c-68.522667-8.448-128.981333-42.325333-170.410667-97.706666-38.656-51.541333-54.784-110.250667-48.554667-176.085334z m67.584 376.917334c-1.536 0.554667-2.730667-0.512-3.626666-3.328a249.514667 249.514667 0 0 0-137.472-107.733334 266.496 266.496 0 0 0-115.626667-8.106666 2.816 2.816 0 0 1-2.858667-1.450667 243.413333 243.413333 0 0 1-29.696-102.272 313.6 313.6 0 0 1 1.066667-47.786667 1.024 1.024 0 0 1 0.853333-0.853333 296.362667 296.362667 0 0 1 44.629334-2.730667c113.962667 1.536 210.688 81.28 237.738666 190.805334 6.4 26.026667 8.106667 53.76 4.992 83.456z" fill="#FFFFFF" p-id="17762"></path><path d="M406.144 670.72c1.066667-12.885333 1.28-25.728 0.768-38.485333a10.581333 10.581333 0 0 0-2.261333-6.101334 248.832 248.832 0 0 1 129.706666 96l7.765334 11.733334c0.853333 2.816 2.048 3.882667 3.584 3.328-0.810667 7.978667-2.048 16.042667-3.712 23.978666l-2.901334 11.861334c-2.773333 11.008-6.4 21.76-10.752 32.256-0.170667 0.426667-0.512 0.64-1.024 0.512A250.410667 250.410667 0 0 1 390.058667 742.4a1.621333 1.621333 0 0 1-0.469334-1.834667 255.786667 255.786667 0 0 0 16.554667-69.802666z" fill="#FFECEC" p-id="17763"></path></svg>