<?xml version="1.0" standalone="no"?><!DOCTYPE svg PUBLIC "-//W3C//DTD SVG 1.1//EN" "http://www.w3.org/Graphics/SVG/1.1/DTD/svg11.dtd"><svg t="1778728976586" class="icon" viewBox="0 0 1024 1024" version="1.1" xmlns="http://www.w3.org/2000/svg" p-id="6561" xmlns:xlink="http://www.w3.org/1999/xlink" width="128" height="128"><path d="M511.996 0C794.772 0 1024 229.228 1024 511.996 1024 794.772 794.772 1024 511.996 1024 229.228 1024 0 794.772 0 511.996 0 229.228 229.228 0 511.996 0z" fill="#B1E9F1" p-id="6562"></path><path d="M387.13 47.8c6.45 0 12.526 1.534 17.898 4.248a32.204 32.204 0 0 1 22.604-9.218c15.22 0 28.002 10.544 31.41 24.722a25.54 25.54 0 0 1 16.51 15.422c0.914-0.11 1.846-0.156 2.786-0.156 14.07 0 25.49 11.42 25.49 25.49 0 14.088-11.42 25.49-25.49 25.49-4.386 0-8.514-1.106-12.114-3.052-3.098 10.598-12.872 18.328-24.476 18.328a25.4 25.4 0 0 1-18.108-7.556 25.4 25.4 0 0 1-18.108 7.556 25.432 25.432 0 0 1-17.414-6.87 25.43 25.43 0 0 1-18.812 8.286c-6.98 0-13.294-2.786-17.888-7.336a29.662 29.662 0 0 1-6.542 0.722c-16.774 0-30.36-13.604-30.36-30.368 0-16.774 13.586-30.368 30.36-30.368 0.914 0 1.828 0.046 2.714 0.128 2.154-19.944 19.03-35.468 39.54-35.468z" fill="#FFFFFF" p-id="6563"></path><path d="M65.762 260.868c26.486-2.494 115.354-7.628 219.81 21.462l10.16-60.976-48.286 46.594-13.266-13.75 69.134-66.704 13.248 13.74h9.648l13.248-13.74 49.546 47.81c0.174 0.138 0.328 0.284 0.456 0.448l19.132 18.446-13.266 13.75-50.286-48.522 15.888 89.462c55.192 23.836 111.582 58.618 163.092 109.142 121.476 119.128-212.052 223.454-486.706 286.11C13.274 644.81 0 579.96 0 511.996c0-91.262 23.91-176.924 65.762-251.128z m259.68-90.066l69.116-66.712 13.274 13.74-69.124 66.722-13.266-13.75z m-9.638 0l-69.116-66.712-13.266 13.74 69.124 66.722 13.258-13.75z" fill="#AEAEAE" p-id="6564"></path><path d="M979.314 302.528h-26.002s-309.134 0.01-463.702 154.568c-117.382 117.392 300.062 190.19 507.71 218.43 17.298-51.356 26.68-106.346 26.68-163.53 0-74.626-15.988-145.514-44.686-209.468z" fill="#AEAEAE" p-id="6565"></path><path d="M511.996 424.58c198.422 0 378.004 58.17 507.948 152.156C988.122 828.942 772.844 1024 511.996 1024c-260.84 0-476.118-195.058-507.938-447.266 129.944-93.984 309.526-152.154 507.938-152.154z" fill="#9BCB64" p-id="6566"></path><path d="M511.996 534.38c187.76 0 358.634 52.094 486.56 137.336C931.458 876.266 738.994 1024 511.996 1024c-226.99 0-419.454-147.734-486.56-352.284 127.934-85.242 298.81-137.336 486.56-137.336z" fill="#ADD37F" p-id="6567"></path><path d="M511.996 688.946c160.808 0 309.234 38.208 428.902 102.728C849.498 931.55 691.56 1024 511.996 1024c-179.554 0-337.494-92.45-428.892-232.326 119.666-64.51 268.094-102.728 428.892-102.728z" fill="#9BCB64" p-id="6568"></path><path d="M511.996 810.998c129.79 0 251.494 24.896 356.542 68.422C776.344 968.89 650.62 1024 511.996 1024c-138.616 0-264.34-55.11-356.534-144.582 105.04-43.524 226.752-68.42 356.534-68.42z" fill="#ADD37F" p-id="6569"></path><path d="M588.156 215.642l189.24-35.614 28.212 149.908-189.23 35.614-28.222-149.908z m50.112 26.34l102.024-19.196 15.202 80.82-102.016 19.196-15.21-80.82z" fill="#AEAEAE" p-id="6570"></path><path d="M599.42 216.684l167.852-31.584 55.512 5.346-71.118-88.284-85.24-18.538-82.61 50.13-24.22 106.228zM709.686 246.742l6.048 5.162-14.198 16.602 19.26 10.296-3.756 7.008-20.794-11.12-15.33 17.926-6.04-5.172 14.19-16.59-19.26-10.306 3.754-7.008 20.794 11.118z" fill="#AEAEAE" p-id="6571"></path><path d="M674.584 127.002c12.38-2.32 24.302 5.82 26.632 18.2 2.33 12.38-5.82 24.302-18.19 26.632-12.38 2.33-24.312-5.82-26.632-18.2-2.33-12.378 5.82-24.292 18.19-26.632z" fill="#FFFFFF" p-id="6572"></path><path d="M309.966 462.404h-12.672v43.716h12.672z" fill="#4D4D4D" p-id="6573"></path><path d="M319.85 442.88h-32.442a5.234 5.234 0 0 0-5.226 5.216v19.232a5.234 5.234 0 0 0 5.226 5.216h32.442a5.226 5.226 0 0 0 5.216-5.216v-19.232a5.224 5.224 0 0 0-5.216-5.216z" fill="#606060" p-id="6574"></path><path d="M703.856 364.93H499.25l-85.214 231.84 187.522 0.294 187.522-0.294z" fill="#666666" p-id="6575"></path><path d="M694.108 378.898l74.964 203.93-167.486 0.266-167.542-0.266 74.954-203.93z" fill="#64B3F5" p-id="6576"></path><path d="M536.964 378.898h20.658l76.808 202.166h-20.658l-76.808-202.166z m36.984 0h80.06l76.818 202.166h-80.07l-76.808-202.166z" fill="#E1F1FB" p-id="6577"></path><path d="M652.794 455.798h-12.234c-3.362 0 0.338 2.804-0.128 6.112l-8.762 61.698h-61.02a6.15 6.15 0 0 0-6.122 6.112v3.856c0 3.352 2.768 6.112 6.122 6.112h6.194v36.39h50.048v-36.39h17.14a6.138 6.138 0 0 0 6.122-6.112v-12.234l8.752-59.432c0.494-3.326-2.75-6.112-6.112-6.112z m-150.318 54.772l-26.176 13.238-0.804 12.142 31.026-16.07 11.676 26.878a8.566 8.566 0 0 0 11.246 4.44 8.566 8.566 0 0 0 4.44-11.246l-29.776-68.558a8.58 8.58 0 0 0-11.256-4.44 8.576 8.576 0 0 0-4.432 11.246l14.056 32.37z" fill="#445A64" p-id="6578"></path><path d="M652.794 455.798h-12.234c-3.362 0 0.338 2.804-0.128 6.112l-8.762 61.698h-2.74l6.104 16.088h9a6.146 6.146 0 0 0 6.122-6.122v-12.234l8.752-59.432c0.492-3.324-2.752-6.11-6.114-6.11z m-40.19 67.81h-20.658l19.926 52.47h15.01v-14.864l-14.278-37.606z" fill="#36464E" p-id="6579"></path><path d="M722.678 347.132H475.614c-3.134 0-7.126 2.924-5.702 5.702l10.78 20.912c1.426 2.768 2.576 5.692 5.692 5.692h226.706c3.116 0 4.394-2.842 5.702-5.692l9.574-20.912c1.31-2.852-2.564-5.702-5.688-5.702z" fill="#FFFF00" p-id="6580"></path><path d="M616.222 576.078H235.094c-25.078 0-12.032 19.962-12.032 45.05v42.876c0 1.782 0.11 3.526 0.31 5.244H162.25v26.916h74.158c8.268 8.304 19.698 13.448 32.27 13.448h546.968l-63.606-173.114-97.292 0.96-38.526 38.62z" fill="#445A64" p-id="6581"></path><path d="M177.774 700.02h58.636c8.268 5.92 19.698 9.594 32.26 9.594h546.978l-10.964-21.288H177.774v11.694zM171.698 647.074H143.612a6.092 6.092 0 0 0-6.076 6.076v59.12a6.088 6.088 0 0 0 6.076 6.066h28.084a6.088 6.088 0 0 0 6.076-6.066v-59.12a6.088 6.088 0 0 0-6.074-6.076z" fill="#36464E" p-id="6582"></path><path d="M452.82 481.754l-209.814 17.104c-40.738 3.316-53.85 43.754-53.85 88.686v19.012c0 44.932-2.248 57.64 38.592 57.64h174.986c40.84 0 74.26-36.774 74.26-81.714v-19.012c0-44.942 16.556-85.032-24.174-81.716z" fill="#FFFF00" p-id="6583"></path><path d="M189.888 569.964c-0.502 5.72-0.73 11.612-0.73 17.578v19.012c0 44.932-2.248 57.64 38.592 57.64h174.986c40.84 0 74.26-36.774 74.26-81.714v-19.012c0-22.064 3.992-42.958 3.234-58.116l-230.854 15.678c-33.624 2.286-51.568 22.13-59.488 48.934z" fill="#FFD500" p-id="6584"></path><path d="M428.882 357.574v240.202c0 6.166 5.044 11.202 11.202 11.202s11.192-5.034 11.192-11.202V341.148c0-20.904-22.686-33.42-34.498-29.994v22.84c7.2-1.306 12.16 3.846 12.16 7.71-0.01 5.29-0.056 10.572-0.056 15.87z" fill="#424242" p-id="6585"></path><path d="M703.638 568.732a128.954 128.954 0 0 0-12.58 1.59l-3.59-7.144c-1.088-2.166-3.014-3.774-5.354-3.17l-6.816 1.754c-2.348 0.602-3.262 2.932-3.17 5.354l0.292 8.004a124.51 124.51 0 0 0-11.794 4.686l-5.262-6.02c-1.59-1.828-3.846-2.906-5.966-1.736l-6.166 3.39c-2.12 1.17-2.422 3.654-1.736 5.976l2.274 7.702a128.154 128.154 0 0 0-10.232 7.464l-6.624-4.532c-1.992-1.38-4.45-1.864-6.212-0.2l-5.134 4.814c-1.754 1.654-1.434 4.138-0.192 6.212l4.13 6.908a127.554 127.554 0 0 0-8.076 9.766l-7.528-2.75c-2.266-0.832-4.77-0.686-6.066 1.352l-3.774 5.938c-1.298 2.038-0.366 4.368 1.352 6.076l5.702 5.646a125.086 125.086 0 0 0-5.39 11.476l-7.958-0.786c-2.412-0.238-4.796 0.52-5.546 2.824l-2.174 6.688c-0.75 2.302 0.74 4.322 2.814 5.546l6.934 4.048a124.672 124.672 0 0 0-2.358 12.462l-7.922 1.206c-2.394 0.374-4.514 1.7-4.668 4.12l-0.448 7.016c-0.156 2.412 1.79 4.01 4.112 4.668l7.748 2.22c0.054 4.258 0.32 8.488 0.794 12.636l-7.372 3.152c-2.23 0.95-3.956 2.76-3.5 5.144l1.316 6.906c0.448 2.376 2.722 3.436 5.144 3.5l8.012 0.21a122.852 122.852 0 0 0 3.928 12.068l-6.34 4.87c-1.928 1.47-3.142 3.654-2.11 5.856L589.12 758c1.024 2.184 3.5 2.65 5.848 2.12l7.83-1.79a127.77 127.77 0 0 0 6.806 10.698l-4.942 6.304c-1.49 1.9-2.128 4.322-0.584 6.186l4.476 5.426c1.544 1.864 4.048 1.7 6.194 0.594l7.154-3.692a127.32 127.32 0 0 0 9.236 8.67l-3.226 7.346c-0.968 2.22-0.978 4.724 0.968 6.148l5.692 4.138c1.956 1.416 4.34 0.64 6.148-0.968l5.994-5.344a125.296 125.296 0 0 0 11.118 6.122l-1.298 7.884c-0.392 2.394 0.22 4.824 2.466 5.71l6.542 2.594c2.248 0.896 4.358-0.456 5.71-2.458l4.468-6.652a127.396 127.396 0 0 0 12.306 3.142l0.704 7.966c0.21 2.412 1.406 4.614 3.81 4.916l6.98 0.886c2.402 0.302 4.112-1.526 4.924-3.8l2.686-7.584c2.084 0.1 4.176 0.156 6.276 0.156a123.36 123.36 0 0 0 6.396-0.164l2.676 7.564c0.804 2.284 2.512 4.112 4.906 3.81l6.99-0.868c2.394-0.302 3.59-2.512 3.818-4.916l0.712-7.986a128.466 128.466 0 0 0 12.298-3.152l4.45 6.632c1.344 2 3.454 3.362 5.71 2.466l6.542-2.576c2.248-0.896 2.86-3.326 2.476-5.71l-1.288-7.922a125.772 125.772 0 0 0 11.11-6.122l5.976 5.336c1.8 1.608 4.184 2.394 6.14 0.978l5.7-4.13c1.956-1.426 1.946-3.928 0.978-6.148l-3.226-7.372a125.568 125.568 0 0 0 9.228-8.67l7.136 3.682c2.148 1.114 4.65 1.288 6.186-0.576l4.496-5.426c1.534-1.854 0.904-4.284-0.576-6.194l-4.952-6.322a129.772 129.772 0 0 0 6.798-10.698l7.802 1.79c2.348 0.54 4.814 0.082 5.848-2.102l3.006-6.368c1.032-2.192-0.192-4.376-2.102-5.856l-6.35-4.878a128.952 128.952 0 0 0 3.92-12.078l7.986-0.2c2.422-0.064 4.696-1.114 5.152-3.49l1.324-6.916c0.448-2.376-1.27-4.194-3.49-5.144l-7.392-3.17c0.456-4.148 0.722-8.378 0.776-12.636l7.73-2.202c2.33-0.658 4.266-2.248 4.12-4.66l-0.438-7.026c-0.146-2.412-2.274-3.746-4.66-4.12l-7.94-1.224a129.936 129.936 0 0 0-2.366-12.452l6.906-4.038c2.092-1.216 3.572-3.234 2.832-5.528l-2.166-6.706c-0.75-2.294-3.134-3.06-5.546-2.824l-7.976 0.776a125.292 125.292 0 0 0-5.408-11.466l5.702-5.638c1.718-1.69 2.65-4.01 1.362-6.058l-3.764-5.948c-1.298-2.038-3.792-2.192-6.076-1.37l-7.546 2.76a128.854 128.854 0 0 0-8.086-9.766l4.13-6.88c1.242-2.074 1.572-4.55-0.192-6.212l-5.126-4.834c-1.754-1.654-4.22-1.17-6.212 0.2l-6.642 4.54a124.546 124.546 0 0 0-10.242-7.456l2.284-7.684c0.686-2.32 0.384-4.806-1.726-5.976l-6.166-3.398c-2.12-1.17-4.376-0.092-5.976 1.726l-5.272 6.03a128.508 128.508 0 0 0-11.804-4.678l0.302-7.986c0.1-2.422-0.814-4.75-3.152-5.354l-6.824-1.764c-2.338-0.594-4.258 1.006-5.354 3.17l-3.618 7.154a130.348 130.348 0 0 0-12.754-1.59l-1.708-7.83c-0.52-2.366-1.982-4.404-4.404-4.404h-7.034c-2.412 0-3.882 2.038-4.394 4.404l-1.724 7.858z" fill="#202020" p-id="6586"></path><path d="M709.604 624.59c-38.044 0-68.888 30.844-68.888 68.888 0 38.052 30.844 68.888 68.888 68.888 38.052 0 68.896-30.834 68.896-68.888 0-38.044-30.844-68.888-68.896-68.888z" fill="#FFD500" p-id="6587"></path><path d="M337.612 625.148c-3.352 0.264-6.66 0.686-9.904 1.252l-2.832-5.618c-0.858-1.7-2.366-2.97-4.22-2.494l-5.362 1.38c-1.846 0.466-2.558 2.312-2.494 4.212l0.238 6.304a97.726 97.726 0 0 0-9.292 3.692l-4.138-4.742c-1.252-1.434-3.034-2.284-4.706-1.37l-4.852 2.676c-1.672 0.914-1.91 2.878-1.37 4.696l1.8 6.066a98.52 98.52 0 0 0-8.058 5.884l-5.216-3.582c-1.562-1.078-3.508-1.462-4.898-0.156l-4.03 3.792c-1.388 1.306-1.132 3.262-0.156 4.898l3.244 5.436a100.5 100.5 0 0 0-6.35 7.684l-5.93-2.166c-1.79-0.648-3.754-0.54-4.778 1.068l-2.97 4.678c-1.024 1.608-0.284 3.436 1.068 4.778l4.486 4.45a99.55 99.55 0 0 0-4.248 9.036l-6.268-0.622c-1.892-0.192-3.774 0.412-4.358 2.22l-1.718 5.262c-0.594 1.818 0.584 3.408 2.22 4.368l5.454 3.188a99.32 99.32 0 0 0-1.854 9.812l-6.24 0.96c-1.882 0.284-3.554 1.334-3.672 3.234l-0.348 5.528c-0.118 1.9 1.406 3.152 3.234 3.682l6.094 1.736c0.054 3.362 0.256 6.678 0.63 9.95l-5.81 2.486c-1.746 0.74-3.106 2.174-2.75 4.048l1.032 5.436c0.356 1.872 2.148 2.704 4.048 2.76l6.314 0.164a101.176 101.176 0 0 0 3.098 9.502l-4.998 3.838c-1.516 1.152-2.466 2.878-1.662 4.604l2.358 5.016c0.804 1.718 2.75 2.074 4.604 1.662l6.158-1.406a101.902 101.902 0 0 0 5.362 8.414l-3.892 4.96c-1.17 1.498-1.682 3.408-0.466 4.878l3.526 4.266c1.216 1.47 3.188 1.344 4.878 0.466l5.638-2.896a105.036 105.036 0 0 0 7.272 6.816l-2.54 5.784c-0.768 1.754-0.776 3.728 0.758 4.842l4.486 3.262c1.534 1.114 3.416 0.494 4.834-0.758l4.732-4.212a97.824 97.824 0 0 0 8.744 4.814l-1.014 6.212c-0.31 1.882 0.164 3.8 1.936 4.496l5.144 2.038c1.772 0.712 3.436-0.356 4.504-1.936l3.518-5.226c3.162 0.986 6.386 1.808 9.684 2.466l0.558 6.268c0.164 1.91 1.106 3.636 2.996 3.882l5.49 0.694c1.892 0.238 3.234-1.206 3.882-2.996l2.11-5.966c1.644 0.082 3.29 0.118 4.952 0.118 1.682 0 3.362-0.036 5.024-0.118l2.11 5.948c0.63 1.79 1.974 3.234 3.864 2.996l5.49-0.686c1.892-0.238 2.842-1.964 3.014-3.864l0.566-6.294a95.208 95.208 0 0 0 9.676-2.476l3.508 5.216c1.06 1.59 2.722 2.65 4.486 1.946l5.162-2.028c1.764-0.694 2.248-2.612 1.946-4.496l-1.014-6.23a102.426 102.426 0 0 0 8.744-4.824l4.706 4.202c1.416 1.27 3.29 1.882 4.834 0.768l4.486-3.252c1.544-1.114 1.534-3.088 0.768-4.834l-2.54-5.81a103.244 103.244 0 0 0 7.272-6.824l5.618 2.896c1.682 0.878 3.654 1.014 4.87-0.456l3.536-4.258c1.216-1.47 0.712-3.38-0.456-4.878l-3.902-4.98a101.18 101.18 0 0 0 5.354-8.432l6.14 1.416c1.864 0.42 3.8 0.064 4.614-1.654l2.366-5.016c0.804-1.718-0.146-3.444-1.654-4.604l-5.006-3.856a101.71 101.71 0 0 0 3.088-9.502l6.294-0.156c1.9-0.054 3.692-0.878 4.048-2.75l1.05-5.446c0.348-1.864-1.006-3.298-2.75-4.048l-5.828-2.494c0.366-3.27 0.576-6.596 0.622-9.95l6.084-1.726c1.836-0.53 3.352-1.772 3.234-3.672l-0.338-5.528c-0.118-1.9-1.79-2.95-3.672-3.252l-6.25-0.96a102.34 102.34 0 0 0-1.864-9.812l5.446-3.17c1.644-0.95 2.814-2.55 2.23-4.368l-1.708-5.262c-0.594-1.808-2.466-2.412-4.368-2.23l-6.276 0.612a101.94 101.94 0 0 0-4.258-9.026l4.476-4.432c1.362-1.344 2.092-3.17 1.078-4.778l-2.96-4.678c-1.024-1.608-2.996-1.726-4.778-1.078l-5.948 2.166a98.28 98.28 0 0 0-6.368-7.674l3.252-5.426c0.978-1.636 1.242-3.59-0.146-4.898l-4.03-3.792c-1.388-1.306-3.326-0.932-4.898 0.146l-5.236 3.582a101.64 101.64 0 0 0-8.058-5.874l1.79-6.048c0.548-1.828 0.31-3.782-1.352-4.696l-4.852-2.686c-1.672-0.914-3.454-0.064-4.706 1.362l-4.156 4.75a97.436 97.436 0 0 0-9.292-3.682l0.238-6.286c0.074-1.9-0.64-3.746-2.486-4.212l-5.362-1.388c-1.846-0.476-3.362 0.786-4.22 2.486l-2.85 5.638a103.326 103.326 0 0 0-10.032-1.252l-1.352-6.166c-0.402-1.864-1.562-3.462-3.462-3.462h-5.546c-1.9 0-3.052 1.608-3.462 3.462l-1.338 6.17z" fill="#202020" p-id="6588"></path><path d="M342.308 669.13c-29.958 0-54.232 24.284-54.232 54.242 0 29.948 24.276 54.232 54.232 54.232s54.242-24.284 54.242-54.232c0-29.958-24.284-54.242-54.242-54.242z" fill="#FFD500" p-id="6589"></path><path d="M780.856 529.656h-128.912l-95.656 96.286 14.262 6.176 84.72-83.46 120.992-1.27 73.794 66.356s9.656-9.666 9.026-11.092c-0.63-1.422-78.226-72.996-78.226-72.996z" fill="#FFFF00" p-id="6590"></path><path d="M514.536 43.252c28.926 0 52.37 23.444 52.37 52.36s-23.444 52.35-52.37 52.35c-28.908 0-52.36-23.434-52.36-52.35s23.452-52.36 52.36-52.36z" fill="#FFED58" p-id="6591"></path><path d="M487.446 201.08s8.342-1.79 15.322-0.456c6.998 1.344 14.28 7.144 22.164 7.592 7.884 0.438 6.24-2.54 6.24-2.54s-5.052 0.75-6.396-3.564c-1.324-4.312 4.166-7.738 12.644-13.676 8.488-5.948 10.122-11.904 8.488-15.622 0 0-1.498 2.376-8.488 6.104-6.99 3.718-12.042 10.562-17.55 15.458-5.5 4.916-5.802 5.208-11 4.176-5.206-1.054-16.362-2.69-21.424 2.528z" fill="" p-id="6592"></path></svg>